HIERARCHY
ROOT Hips
{
	OFFSET	0.00	0.00	0.00
	CHANNELS 6 Xposition Yposition Zposition Zrotation Xrotation Yrotation
	JOINT LeftUpLeg
	{
		OFFSET	 0.126116	-0.065224	 0.014019
		CHANNELS 3 Zrotation Xrotation Yrotation
		JOINT LeftLeg
		{
			OFFSET	 0.000000	 0.569914	 0.000000
			CHANNELS 3 Zrotation Xrotation Yrotation
			JOINT LeftFoot
			{
				OFFSET	 0.000000	 0.544423	 0.000000
				CHANNELS 3 Zrotation Xrotation Yrotation
				JOINT LeftToeBase
				{
					OFFSET	 0.000000	 0.207117	 0.000000
					CHANNELS 3 Zrotation Xrotation Yrotation
					End Site
					{
						OFFSET	 0.000000	 0.207117	 0.000000
					}
				}
			}
		}
	}
	JOINT RightUpLeg
	{
		OFFSET	-0.124023	-0.065224	 0.008373
		CHANNELS 3 Zrotation Xrotation Yrotation
		JOINT RightLeg
		{
			OFFSET	 0.000000	 0.570047	 0.000000
			CHANNELS 3 Zrotation Xrotation Yrotation
			JOINT RightFoot
			{
				OFFSET	 0.000000	 0.544354	 0.000000
				CHANNELS 3 Zrotation Xrotation Yrotation
				JOINT RightToeBase
				{
					OFFSET	 0.000000	 0.207540	 0.000000
					CHANNELS 3 Zrotation Xrotation Yrotation
					End Site
					{
						OFFSET	 0.000000	 0.207540	 0.000000
					}
				}
			}
		}
	}
	JOINT Spine
	{
		OFFSET	 0.000184	 0.117403	 0.007763
		CHANNELS 3 Zrotation Xrotation Yrotation
		JOINT Spine1
		{
			OFFSET	 0.000000	 0.137269	 0.000000
			CHANNELS 3 Zrotation Xrotation Yrotation
			JOINT Spine2
			{
				OFFSET	 0.000000	 0.156879	 0.000000
				CHANNELS 3 Zrotation Xrotation Yrotation
				JOINT LeftShoulder
				{
					OFFSET	 0.080501	 0.160143	 0.002496
					CHANNELS 3 Zrotation Xrotation Yrotation
					JOINT LeftArm
					{
						OFFSET	 0.000000	 0.164363	 0.000000
						CHANNELS 3 Zrotation Xrotation Yrotation
						JOINT LeftForeArm
						{
							OFFSET	 0.000000	 0.364576	 0.000000
							CHANNELS 3 Zrotation Xrotation Yrotation
							JOINT LeftHand
							{
								OFFSET	 0.000000	 0.360812	 0.000000
								CHANNELS 3 Zrotation Xrotation Yrotation
								JOINT LeftHandIndex1
								{
									OFFSET	 0.000000	 0.086006	 0.000000
									CHANNELS 3 Zrotation Xrotation Yrotation
									JOINT LeftHandIndex2
									{
										OFFSET	 0.000000	 0.047237	 0.000000
										CHANNELS 3 Zrotation Xrotation Yrotation
										JOINT LeftHandIndex3
										{
											OFFSET	-0.004284	 0.038165	 0.000551
											CHANNELS 3 Zrotation Xrotation Yrotation
											End Site
											{
												OFFSET	-0.004284	 0.038165	 0.000551
											}
										}
									}
								}
							}
						}
					}
				}
				JOINT Neck
				{
					OFFSET	 0.000000	 0.176489	 0.000000
					CHANNELS 3 Zrotation Xrotation Yrotation
					JOINT Head
					{
						OFFSET	 0.000000	 0.077941	 0.001747
						CHANNELS 3 Zrotation Xrotation Yrotation
						End Site
						{
							OFFSET	 0.000000	 0.077941	 0.001747
						}
					}
				}
				JOINT RightShoulder
				{
					OFFSET	-0.080363	 0.159706	-0.000306
					CHANNELS 3 Zrotation Xrotation Yrotation
					JOINT RightArm
					{
						OFFSET	 0.000000	 0.164196	 0.000000
						CHANNELS 3 Zrotation Xrotation Yrotation
						JOINT RightForeArm
						{
							OFFSET	 0.000000	 0.365611	 0.000000
							CHANNELS 3 Zrotation Xrotation Yrotation
							JOINT RightHand
							{
								OFFSET	 0.000000	 0.360648	 0.000000
								CHANNELS 3 Zrotation Xrotation Yrotation
								JOINT RightHandIndex1
								{
									OFFSET	 0.000000	 0.069977	 0.000000
									CHANNELS 3 Zrotation Xrotation Yrotation
									JOINT RightHandIndex2
									{
										OFFSET	 0.000000	 0.052305	 0.000000
										CHANNELS 3 Zrotation Xrotation Yrotation
										JOINT RightHandIndex3
										{
											OFFSET	 0.009002	 0.042196	 0.000782
											CHANNELS 3 Zrotation Xrotation Yrotation
											End Site
											{
												OFFSET	 0.009002	 0.042196	 0.000782
											}
										}
									}
								}
							}
						}
					}
				}
			}
		}
	}
}
MOTION
Frames:    9
Frame Time: 0.03333334
 0.436611	 1.273916	 0.406694	 0.537283	-2.389029	-177.251500	 175.359200	 5.729595	 16.523770	 3.359340	-12.438870	 5.961009	 5.738318	 69.453530	-1.614244	 1.292262	 28.425850	-2.713146	-177.987500	 7.852050	-14.966460	-2.369811	-12.140890	 0.773446	 1.686725	 67.912570	-6.044804	-1.288183	 28.361890	 2.710176	 0.090148	 6.602497	-0.445823	 0.121565	-6.898526	-0.354605	 0.451128	 7.968090	 0.446256	-117.493300	-0.790304	 89.953820	-2.323007	-0.031259	-7.645989	 39.550370	-2.966210	 35.678740	-11.948380	 10.963210	-2.311326	-6.580301	 5.266122	 0.000000	 0.000000	 0.000000	 0.000000	 0.000000	 0.000000	 0.000000	 4.818743	 27.190830	 1.693384	-4.028088	-16.212100	 0.212342	 116.341500	-0.455078	-90.564000	-1.576413	 5.922260	 19.385540	-25.810710	 0.595104	-56.998670	-0.813157	-2.985177	 12.241190	 15.208500	 5.323790	 0.000000	 0.000000	 0.000000	 0.000000	 0.000000	 0.000000	 0.000000
 0.436664	 1.273865	 0.415683	 0.654218	-3.956710	-177.094500	 175.233500	 8.080547	 16.884350	 3.540054	-13.084770	 6.380578	 5.672179	 69.434330	-2.419166	 1.292262	 28.425850	-2.713146	-177.981400	 9.852287	-14.953550	-2.357551	-12.080030	 0.229289	 1.261944	 67.417790	-4.807590	-1.288183	 28.361890	 2.710176	 0.062714	 7.565113	-0.308677	 0.032285	-8.801843	-0.410956	 0.600684	 11.095390	 0.325483	-119.161300	-1.295340	 89.719680	-2.646770	 1.990119	-2.795285	 44.166910	-3.245078	 31.769390	-11.530850	 10.834520	 1.135334	-6.580301	 5.266122	 0.000000	 0.000000	 0.000000	 0.000000	 0.000000	 0.000000	 0.000000	 6.035948	 30.833250	 0.669890	-4.165160	-18.030800	 0.400225	 118.972800	-1.175038	-90.297330	-1.956705	 7.909852	 17.226220	-29.831210	 0.680012	-54.223740	-0.969180	 0.072525	 5.821560	 15.208500	 5.323790	 0.000000	 0.000000	 0.000000	 0.000000	 0.000000	 0.000000	 0.000000
 0.436632	 1.273691	 0.417741	 0.684067	-4.248952	-177.064100	 175.179500	 8.595288	 16.955830	 3.613264	-13.345440	 6.467842	 5.651823	 69.491520	-2.579480	 1.292262	 28.425850	-2.713146	-177.950200	 10.291800	-14.952990	-2.378561	-12.184410	 0.125432	 1.218675	 67.371730	-4.593860	-1.288183	 28.361890	 2.710176	 0.067212	 7.770693	-0.279847	 0.015799	-8.992778	-0.420009	 0.628866	 11.609180	 0.305089	-119.476500	-1.389921	 89.673820	-2.485064	 2.649189	-1.754443	 44.825820	-3.283220	 31.099940	-11.620170	 10.510060	 1.642931	-6.580301	 5.266122	 0.000000	 0.000000	 0.000000	 0.000000	 0.000000	 0.000000	 0.000000	 6.279731	 31.519350	 0.461920	-4.190877	-18.373420	 0.437976	 119.470200	-1.309607	-90.243260	-2.308322	 8.533154	 16.773960	-30.223210	 0.688092	-53.826690	-0.817924	 0.294360	 4.783029	 15.208500	 5.323790	 0.000000	 0.000000	 0.000000	 0.000000	 0.000000	 0.000000	 0.000000
 0.436672	 1.272231	 0.434714	 0.920340	-6.588233	-176.815900	 174.781300	 12.639800	 17.510120	 4.121638	-15.138990	 7.145237	 5.415699	 69.755680	-3.733333	 1.292262	 28.425850	-2.713146	-177.720400	 13.833640	-14.921590	-2.533815	-12.953160	-0.662445	 1.028176	 66.921590	-3.048275	-1.288183	 28.361890	 2.710176	 0.094743	 9.477923	-0.013873	-0.024050	-9.642925	-0.460873	 0.811476	 15.320850	 0.160687	-121.997400	-2.136017	 89.288950	 2.858659	 7.493540	 5.753081	 44.622180	-3.271456	 26.105680	-10.948440	 7.801404	 4.062104	-6.580301	 5.266122	 0.000000	 0.000000	 0.000000	 0.000000	 0.000000	 0.000000	 0.000000	 8.412889	 36.968180	-1.393404	-4.393887	-21.098170	 0.764836	 123.449000	-2.366473	-89.769700	-9.413792	 12.522360	 14.253150	-26.923680	 0.618968	-51.737940	-0.914528	 0.426257	-1.607927	 15.208500	 5.323790	 0.000000	 0.000000	 0.000000	 0.000000	 0.000000	 0.000000	 0.000000
 0.439504	 1.269339	 0.467436	 0.895022	-12.156150	-176.195800	 173.525500	 21.045170	 18.207240	 4.507847	-16.480920	 9.749191	 7.323004	 68.528340	-8.905561	 1.292262	 28.425850	-2.713146	-177.942200	 22.375520	-13.702120	-2.886574	-14.681740	-2.860861	-0.256650	 65.994030	 1.196412	-1.288183	 28.361890	 2.710176	 0.252708	 10.849020	 0.464367	-0.098774	-8.350350	-0.196699	 0.809944	 16.528590	-0.689797	-123.598700	 3.381860	 92.148850	 5.973921	 13.982430	 8.867777	 46.355630	-3.370052	 21.850920	-6.002320	 5.510598	 3.724501	-6.580301	 5.266122	 0.000000	 0.000000	 0.000000	 0.000000	 0.000000	 0.000000	 0.000000	 9.659178	 36.799890	-3.045933	-4.195611	-22.985130	 0.574503	 125.982700	 2.255193	-92.320620	-14.364170	 18.906580	 11.256250	-26.773460	 0.615695	-45.713120	-2.669233	-0.134478	-5.244077	 15.208500	 5.323790	 0.000000	 0.000000	 0.000000	 0.000000	 0.000000	 0.000000	 0.000000
 0.440522	 1.267043	 0.474414	 0.944483	-13.216730	-175.971600	 173.035700	 23.058940	 18.535300	 4.844754	-17.636120	 10.363870	 7.776151	 68.754520	-10.076090	 1.292262	 28.425850	-2.713146	-177.751500	 24.475730	-13.435480	-3.157566	-15.991060	-3.195093	-0.114645	 66.302500	 1.617595	-1.288183	 28.361890	 2.710176	 0.301996	 10.972220	 0.545250	-0.036641	-7.101767	-0.124093	 0.812365	 16.043770	-0.848730	-123.626800	 4.427501	 92.696200	 6.942910	 14.633360	 8.837549	 46.581600	-3.382637	 21.528310	-5.161682	 4.997883	 3.366691	-6.580301	 5.266122	 0.000000	 0.000000	 0.000000	 0.000000	 0.000000	 0.000000	 0.000000	 9.596661	 36.524340	-3.141551	-4.112192	-23.301340	 0.501539	 126.105400	 3.222676	-92.858540	-15.496820	 19.802980	 11.117190	-27.030530	 0.621205	-44.823270	-2.816873	-0.735082	-5.168346	 15.208500	 5.323790	 0.000000	 0.000000	 0.000000	 0.000000	 0.000000	 0.000000	 0.000000
 0.453348	 1.246338	 0.538349	 2.030626	-24.461330	-172.449000	 168.512800	 40.704980	 23.180790	 6.456986	-22.943670	 16.029410	 11.261990	 68.384640	-19.941550	 1.292262	 28.425850	-2.713146	-177.981400	 43.327430	-9.003815	-4.817831	-23.603700	-5.146033	 3.586608	 66.953250	 2.327723	-1.288183	 28.361890	 2.710176	 0.787940	 11.309930	 0.857045	 1.182231	 2.557710	 0.064216	 1.097091	 11.075650	-2.057253	-120.931300	 12.999610	 96.770130	 16.227130	 15.983050	 6.625239	 49.089870	-3.519085	 22.458010	 1.520615	-1.229327	 0.842263	-6.580301	 5.266122	 0.000000	 0.000000	 0.000000	 0.000000	 0.000000	 0.000000	 0.000000	 6.502639	 34.055530	-2.412409	-2.883439	-27.268840	-0.361530	 124.290800	 12.325690	-97.538190	-27.731870	 22.594890	 14.291740	-27.340470	 0.627798	-38.733280	-7.374412	-10.499990	-3.430628	 15.208500	 5.323790	 0.000000	 0.000000	 0.000000	 0.000000	 0.000000	 0.000000	 0.000000
 0.459006	 1.227820	 0.567783	-0.150124	-28.397460	-174.047900	 164.017500	 47.833930	 23.637180	 7.789879	-27.030940	 18.489240	 12.670860	 69.049830	-23.623730	 1.292262	 28.425850	-2.713146	-178.538400	 52.227590	-9.565044	-6.380101	-30.034200	-11.001240	-6.066077	 69.309920	 14.676460	-1.288183	 28.361890	 2.710176	 0.739416	 12.799130	 1.556001	 1.124606	 3.675576	 0.786240	 0.857444	 11.435960	-2.455689	-120.585700	 16.945700	 98.667530	 21.256130	 13.089230	 2.918538	 48.446410	-3.484765	 20.824690	 6.923893	-6.709316	 1.531113	-6.580301	 5.266122	 0.000000	 0.000000	 0.000000	 0.000000	 0.000000	 0.000000	 0.000000	 4.735377	 35.120150	-2.914970	-1.702230	-32.718830	-0.966577	 122.798000	 16.999600	-99.684060	-28.521180	 18.848760	 16.236720	-30.772900	 0.699339	-34.256140	-9.682597	-15.804610	-1.708633	 15.208500	 5.323790	 0.000000	 0.000000	 0.000000	 0.000000	 0.000000	 0.000000	 0.000000
 0.471840	 1.166911	 0.594766	-5.423368	-34.968090	-176.191400	 146.511700	 61.234630	 32.834220	 13.009290	-40.276700	 24.790110	 16.534960	 72.816130	-30.672070	 1.292262	 28.425850	-2.713146	-179.648400	 69.886680	-10.616970	-11.854380	-46.903880	-20.931570	-25.950480	 74.520770	 37.614280	-1.288183	 28.361890	 2.710176	 0.180595	 14.504620	 1.043390	 0.230672	 9.422740	 0.073960	-0.780974	 9.491199	-2.917834	-124.228100	 23.177550	 102.748700	 26.920870	-0.119553	 0.915288	 43.790940	-3.223182	 15.423500	 9.384153	-13.251000	 3.248448	-6.580301	 5.266122	 0.000000	 0.000000	 0.000000	 0.000000	 0.000000	 0.000000	 0.000000	 8.069016	 40.585640	-4.521752	-3.189195	-43.343310	-0.899126	 129.942900	 24.730340	-105.940200	-33.125350	 3.332424	 16.733050	-26.709680	 0.614472	-26.155980	-15.928420	-21.188000	-7.333257	 15.208500	 5.323790	 0.000000	 0.000000	 0.000000	 0.000000	 0.000000	 0.000000	 0.000000
